<svg height="25" viewBox="0 0 79.96 24.66" width="80" xmlns="http://www.w3.org/2000/svg"><path d="m44.77 20.85c.24-.21.37-.52.35-.84.02-.32-.1-.63-.35-.83-.29-.2-.64-.3-1-.28h-1.23v2.22h1.23c.35.03.7-.07 1-.27m.5-2.12c.35.32.54.78.52 1.26.03.49-.16.97-.52 1.31-.41.33-.93.5-1.46.47h-1.26v1.58h-.7v-5.06h1.95c.53-.03 1.05.12 1.47.45m2.68.39c-.3.17-.54.41-.72.7-.35.61-.35 1.36 0 1.96.18.3.42.54.72.71s.64.26.98.26.68-.09.97-.26.53-.42.7-.71c.35-.61.35-1.36 0-1.96-.17-.29-.41-.53-.7-.7s-.63-.26-.97-.26c-.35 0-.69.09-.99.26zm2.31-.54c.4.22.73.54.97.93s.36.84.35 1.3c0 .46-.12.91-.35 1.3s-.57.71-.97.93c-.84.46-1.85.46-2.68 0-.82-.45-1.32-1.31-1.32-2.24 0-.46.12-.91.35-1.3s.56-.71.96-.93c.84-.45 1.85-.45 2.69 0zm8.34-.3h.72l-1.72 5.06h-.72l-1.31-4.18-1.33 4.18h-.71l-1.71-5.06h.74l1.34 4.32 1.33-4.32h.7l1.34 4.32zm1.47 0h3.52v.63h-2.82v1.56h2.52v.63h-2.52v1.61h2.91v.63h-3.6v-5.06zm6.7 2.86c.36.02.71-.08 1-.28.24-.21.37-.52.35-.84.03-.32-.1-.62-.34-.83-.29-.2-.64-.3-1-.28h-1.29v2.23zm1.29 2.22-1-1.6c-.12 0-.21.01-.28.01h-1.29v1.58h-.7v-5.06h1.98c.53-.03 1.06.12 1.49.44.36.32.55.78.52 1.26.01.37-.09.73-.28 1.04-.2.29-.49.5-.82.61l1.18 1.72zm1.97-5.06h3.51v.63h-2.82v1.56h2.52v.63h-2.52v1.61h2.91v.63h-3.6zm7.76 4.19c.28-.16.52-.4.68-.68.34-.61.34-1.34 0-1.95-.17-.29-.41-.52-.7-.68-.3-.17-.63-.25-.97-.25h-1.35v3.81h1.38c.34 0 .67-.08.96-.25m.36-3.86c.39.21.71.53.93.91.45.8.45 1.79 0 2.59-.22.38-.55.7-.93.91-.41.22-.88.34-1.35.33h-2.04v-5.06h2.06c.46 0 .92.11 1.33.33" fill="#f9f4e8"/><g fill="#f5eee0"><path d="m22.44 13.72h5.79v1.58h-7.66v-13.54h1.87z"/><path d="m33.73 15.48c-.93 0-1.75-.21-2.48-.62-.72-.41-1.29-.99-1.71-1.72-.41-.74-.62-1.57-.62-2.51s.21-1.78.62-2.51c.41-.74.98-1.31 1.71-1.72.72-.41 1.55-.62 2.48-.62s1.75.21 2.48.62c.72.41 1.29.99 1.71 1.72.41.74.62 1.57.62 2.51s-.21 1.78-.62 2.51c-.41.74-.98 1.31-1.71 1.72-.72.41-1.55.62-2.48.62zm0-1.58c.58 0 1.09-.14 1.54-.42s.79-.66 1.05-1.16c.25-.49.38-1.06.38-1.71s-.13-1.21-.38-1.71c-.25-.49-.6-.88-1.05-1.16s-.96-.42-1.54-.42-1.09.14-1.54.42-.79.66-1.05 1.16c-.25.49-.38 1.06-.38 1.71s.13 1.21.38 1.71c.25.49.6.88 1.05 1.16s.96.42 1.54.42z"/><path d="m44.49 15.5c-.92 0-1.72-.21-2.41-.62s-1.24-.99-1.63-1.72c-.4-.74-.59-1.59-.59-2.55s.19-1.79.58-2.52.93-1.3 1.63-1.71 1.51-.61 2.44-.61c.74 0 1.42.14 2.03.43.61.28 1.12.69 1.53 1.22l-1.28 1.04c-.56-.74-1.32-1.11-2.28-1.11-.83 0-1.49.3-1.98.89s-.74 1.38-.74 2.37.25 1.79.75 2.4 1.16.92 1.97.92c.51 0 .94-.09 1.31-.28.36-.19.7-.45.99-.8l1.28 1.04c-.41.51-.93.9-1.56 1.19s-1.31.43-2.04.43z"/><path d="m55.72 15.29-.13-1.54c-.32.56-.76.99-1.33 1.29-.56.3-1.2.45-1.9.45-.94 0-1.71-.26-2.3-.78s-.89-1.22-.89-2.1c0-.98.38-1.75 1.15-2.33.77-.57 1.83-.86 3.19-.86.67 0 1.35.07 2.06.2-.04-.84-.27-1.43-.7-1.78s-1-.52-1.71-.52c-.54 0-1.06.09-1.56.27-.49.18-.96.41-1.39.7l-.7-1.32c.57-.37 1.17-.67 1.79-.89s1.27-.33 1.94-.33c1.21 0 2.2.33 2.96.98.76.66 1.14 1.68 1.14 3.06v5.49h-1.61zm-4.73-2.74c0 .42.15.75.46 1s.74.37 1.3.37c.83 0 1.5-.26 2.03-.79s.79-1.2.79-2.01v-.04c-.27-.06-.57-.11-.88-.16-.32-.04-.63-.06-.96-.06-.85 0-1.52.15-2.01.44s-.73.71-.73 1.25z"/><path d="m59.43 15.29v-13.53h1.8v13.53z"/><path d="m64.31 4.11c-.31 0-.58-.11-.81-.32-.23-.22-.34-.49-.34-.81s.11-.59.34-.81.5-.32.81-.32.58.11.81.32c.23.22.34.49.34.81s-.11.59-.34.81-.5.32-.81.32zm-.89 11.18v-9.53h1.8v9.53z"/><path d="m79.42 8.99c0 1-.17 1.92-.5 2.74-.33.83-.8 1.53-1.39 2.11l1.76 2.19h-2.23l-.95-1.19c-.85.43-1.79.65-2.82.65-1.19 0-2.24-.28-3.15-.83-.92-.56-1.64-1.32-2.16-2.3-.53-.98-.79-2.1-.79-3.38s.26-2.4.79-3.38 1.25-1.74 2.16-2.3 1.97-.83 3.15-.83 2.24.28 3.16.83c.92.56 1.64 1.32 2.17 2.3s.79 2.1.79 3.38zm-10.31 0c0 .96.18 1.81.54 2.54s.85 1.3 1.48 1.72c.63.41 1.35.62 2.17.62.62 0 1.19-.12 1.71-.37l-2.71-3.36h2.23l1.85 2.3c.36-.42.64-.92.83-1.51.2-.59.3-1.23.3-1.94 0-.96-.18-1.81-.54-2.54s-.86-1.3-1.49-1.72c-.64-.41-1.36-.62-2.18-.62s-1.54.21-2.17.62-1.13.99-1.48 1.72c-.36.73-.54 1.58-.54 2.54z"/></g><path d="m11.02 14.03.69.69s.04.04.07.06c-.02-.01-.04-.03-.06-.05l-.71-.7z" fill="#f8f3e8"/><path d="m8.2 6.84c-.17-.17-.45-.17-.62 0l-3.42 3.44-1.34 1.35-.92.93s-.06.07-.08.12c-.06.14-.04.29.04.42.23.32.49.62.77.9s.59.54.91.77c.17.12.41.1.56-.05l2.27-2.27v3.23s0 .04.01.07c.04.18.17.32.36.35.78.12 1.58.12 2.36 0 .21-.03.37-.22.37-.44v-3.2l1.58 1.57.71.7s.04.03.06.05c.15.1.35.1.5 0 .32-.23.62-.49.9-.77s.54-.59.77-.91c.12-.17.1-.41-.05-.56l-2.27-2.27-3.44-3.42z" fill="#ef4923"/><path d="m15.28 7.54c-.03-.21-.22-.37-.44-.37h-3.2l2.27-2.27c.15-.15.18-.39.05-.56-.23-.32-.49-.62-.77-.91s-.59-.54-.9-.77c-.17-.12-.41-.1-.56.05l-2.27 2.27v-3.2c0-.21-.15-.41-.37-.44-.78-.12-1.58-.12-2.36 0-.21.03-.37.22-.37.44v3.2l-2.27-2.27c-.15-.15-.39-.18-.56-.05-.32.23-.62.49-.91.77s-.54.59-.77.9c-.12.17-.1.41.05.56l2.27 2.27h-3.21c-.21 0-.41.15-.44.37-.12.78-.12 1.58 0 2.36.03.21.22.37.44.37h3.21l3.4-3.42c.17-.17.45-.17.62 0l3.44 3.42h3.2c.21 0 .41-.15.44-.37.12-.78.12-1.58 0-2.36z" fill="#3b5eaa"/></svg>